<?xml version="1.0"?>
<svg xmlns="http://www.w3.org/2000/svg" height="512px" viewBox="-4 0 512 512" width="512px" class=""><g><path d="m173.558594 407.863281c19.171875 0 34.710937-15.539062 34.710937-34.710937s-15.539062-34.710938-34.710937-34.710938-34.710938 15.539063-34.710938 34.710938 15.539063 34.710937 34.710938 34.710937zm0-43.390625c4.792968 0 8.679687 3.886719 8.679687 8.679688 0 4.792968-3.886719 8.679687-8.679687 8.679687-4.792969 0-8.675782-3.886719-8.675782-8.679687 0-4.792969 3.882813-8.679688 8.675782-8.679688zm0 0" data-original="#000000" class="active-path" data-old_color="#000000" fill="#FFFFFF"/><path d="m146.832031 303.730469h-25.339843c-4.792969 0-8.679688-3.886719-8.679688-8.679688s3.886719-8.679687 8.679688-8.679687h25.339843c-3.8125-26.632813-24.738281-47.558594-51.375-51.371094v34.015625c0 4.792969-3.882812 8.679687-8.675781 8.679687s-8.679688-3.886718-8.679688-8.679687v-34.015625c-26.636718 3.8125-47.5625 24.738281-51.375 51.371094h25.339844c4.792969 0 8.679688 3.886718 8.679688 8.679687s-3.886719 8.679688-8.679688 8.679688h-25.339844c3.8125 26.632812 24.738282 47.558593 51.375 51.371093v-25.339843c0-4.792969 3.886719-8.675781 8.679688-8.675781s8.675781 3.882812 8.675781 8.675781v25.339843c26.636719-3.8125 47.5625-24.738281 51.375-51.371093zm0 0" data-original="#000000" class="active-path" data-old_color="#000000" fill="#FFFFFF"/><path d="m416.542969 269.015625c-14.359375-.042969-25.992188-11.671875-26.035157-26.03125 0-.957031.085938-1.910156.175782-2.863281-12.78125 6.007812-23.0625 16.289062-29.074219 29.070312.957031-.085937 1.910156-.175781 2.863281-.175781 14.378906 0 26.035156 11.65625 26.035156 26.035156 0 14.378907-11.65625 26.035157-26.035156 26.035157-.953125 0-1.992187-.089844-2.863281-.175782 6.011719 12.78125 16.292969 23.0625 29.074219 29.070313-.089844-.867188-.175782-1.90625-.175782-2.863281 0-14.375 11.65625-26.03125 26.035157-26.03125 14.378906 0 26.035156 11.65625 26.035156 26.03125 0 .957031-.089844 1.996093-.175781 2.863281 12.78125-6.007813 23.0625-16.289063 29.070312-29.070313-.953125.085938-1.90625.175782-2.863281.175782-14.378906 0-26.03125-11.65625-26.03125-26.035157 0-14.378906 11.652344-26.035156 26.03125-26.035156.957031 0 1.996094.089844 2.863281.175781-6.007812-12.78125-16.289062-23.0625-29.070312-29.070312.085937.867187.175781 1.90625.175781 2.863281-.042969 14.359375-11.675781 25.988281-26.035156 26.03125zm0 0" data-original="#000000" class="active-path" data-old_color="#000000" fill="#FFFFFF"/><path d="m329.761719 338.441406c-19.167969 0-34.710938 15.539063-34.710938 34.710938s15.542969 34.710937 34.710938 34.710937c19.171875 0 34.710937-15.539062 34.710937-34.710937s-15.539062-34.710938-34.710937-34.710938zm0 43.390625c-4.792969 0-8.675781-3.886719-8.675781-8.679687 0-4.792969 3.882812-8.679688 8.675781-8.679688s8.679687 3.886719 8.679687 8.679688c0 4.792968-3.886718 8.679687-8.679687 8.679687zm0 0" data-original="#000000" class="active-path" data-old_color="#000000" fill="#FFFFFF"/><path d="m208.269531 286.371094h86.78125c4.792969 0 8.679688-3.882813 8.679688-8.675782v-60.746093h-43.390625v-47.730469c0-16.773438 13.597656-30.371094 30.371094-30.371094h8.679687c26.359375 0 47.726563-21.367187 47.726563-47.730468 0-26.359376-21.367188-47.726563-47.726563-47.726563h-8.679687c-16.773438 0-30.371094-13.597656-30.371094-30.375v-4.335937c0-4.792969-3.886719-8.679688-8.679688-8.679688-4.792968 0-8.675781 3.886719-8.675781 8.679688v4.335937c.027344 26.347656 21.378906 47.703125 47.726563 47.730469h8.679687c16.773437 0 30.371094 13.597656 30.371094 30.371094 0 16.777343-13.597657 30.375-30.371094 30.375h-8.679687c-26.347657.027343-47.699219 21.378906-47.726563 47.726562v47.730469h-43.390625v60.746093c0 4.792969 3.882812 8.675782 8.675781 8.675782zm0 0" data-original="#000000" class="active-path" data-old_color="#000000" fill="#FFFFFF"/><path d="m164.882812 294.703125v.347656c.015626 9.558594-1.75 19.035157-5.207031 27.941407 4.511719-1.292969 9.1875-1.9375 13.882813-1.90625 28.757812 0 52.070312 23.308593 52.070312 52.066406.03125 9.152344-2.398437 18.144531-7.03125 26.035156h66.125c-4.632812-7.890625-7.058594-16.882812-7.027344-26.035156-.023437-16.269532 7.566407-31.613282 20.515626-41.460938 12.953124-9.847656 29.765624-13.066406 45.4375-8.699218-3.296876-8.4375-5.03125-17.40625-5.121094-26.464844-.070313-.3125-.101563-.636719-.085938-.957032v-.519531c.066406-43.105469 34.996094-78.035156 78.101563-78.101562 8.597656-.023438 17.136719 1.417969 25.253906 4.253906-10.589844-13.367187-22.042969-21.609375-33.933594-21.609375-33.148437 0-26.726562 15.878906-86.777343 17.269531v60.832031c-.042969 14.359376-11.675782 25.992188-26.035157 26.035157h-86.78125c-14.359375-.042969-25.988281-11.675781-26.03125-26.035157v-60.832031c-60.050781-1.390625-53.628906-17.269531-86.78125-17.269531-11.886719 0-23.34375 8.242188-33.929687 21.609375 8.117187-2.835937 16.65625-4.277344 25.253906-4.253906 42.972656.054687 77.851562 34.78125 78.101562 77.753906zm0 0" data-original="#000000" class="active-path" data-old_color="#000000" fill="#FFFFFF"/><path d="m43.390625 512c77.753906 0 63.433594-74.804688 92.851563-102.574219-9.46875-9.695312-14.765626-22.71875-14.75-36.273437-.007813-2.882813.253906-5.757813.78125-8.589844-19.183594 9.839844-41.589844 11.292969-61.882813 4.007812-20.292969-7.285156-36.660156-22.65625-45.203125-42.453124-8.6875 29.421874-13.785156 59.78125-15.1875 90.425781 0 86.777343 8.679688 95.457031 43.390625 95.457031zm0 0" data-original="#000000" class="active-path" data-old_color="#000000" fill="#FFFFFF"/><path d="m416.542969 373.152344c-12.347657-.003906-24.511719-2.945313-35.492188-8.589844.523438 2.832031.785157 5.707031.78125 8.589844.015625 13.554687-5.28125 26.578125-14.753906 36.273437 29.417969 27.769531 15.097656 102.574219 92.855469 102.574219 34.710937 0 43.386718-8.679688 43.386718-95.457031-1.398437-30.644531-6.5-61.003907-15.183593-90.425781-12.359375 28.546874-40.488281 47.027343-71.59375 47.035156zm0 0" data-original="#000000" class="active-path" data-old_color="#000000" fill="#FFFFFF"/><path d="m373.152344 295.050781c-.164063-4.5-3.742188-8.125-8.238282-8.351562-4.496093-.226563-8.417968 3.023437-9.03125 7.484375-.070312.28125-.101562.574218-.085937.867187v.261719c.070313 4.792969 4.015625 8.617188 8.808594 8.546875 4.792969-.074219 8.617187-4.015625 8.546875-8.808594zm0 0" data-original="#000000" class="active-path" data-old_color="#000000" fill="#FFFFFF"/><path d="m425.21875 242.984375c0 4.792969-3.882812 8.675781-8.675781 8.675781s-8.679688-3.882812-8.679688-8.675781 3.886719-8.679687 8.679688-8.679687 8.675781 3.886718 8.675781 8.679687zm0 0" data-original="#000000" class="active-path" data-old_color="#000000" fill="#FFFFFF"/><path d="m477.289062 295.050781c0 4.792969-3.886718 8.679688-8.679687 8.679688s-8.675781-3.886719-8.675781-8.679688 3.882812-8.679687 8.675781-8.679687 8.679687 3.886718 8.679687 8.679687zm0 0" data-original="#000000" class="active-path" data-old_color="#000000" fill="#FFFFFF"/><path d="m425.21875 347.117188c0 4.792968-3.882812 8.679687-8.675781 8.679687s-8.679688-3.886719-8.679688-8.679687c0-4.792969 3.886719-8.675782 8.679688-8.675782s8.675781 3.882813 8.675781 8.675782zm0 0" data-original="#000000" class="active-path" data-old_color="#000000" fill="#FFFFFF"/><path d="m86.78125 173.558594c4.792969 0 8.675781-3.882813 8.675781-8.675782v-17.355468c0-4.792969-3.882812-8.679688-8.675781-8.679688s-8.679688 3.886719-8.679688 8.679688v17.355468c0 4.792969 3.886719 8.675782 8.679688 8.675782zm0 0" data-original="#000000" class="active-path" data-old_color="#000000" fill="#FFFFFF"/><path d="m30.832031 181.371094 17.355469 8.675781c4.289062 2.144531 9.503906.402344 11.648438-3.886719 2.140624-4.289062.398437-9.503906-3.890626-11.644531l-17.355468-8.679687c-2.773438-1.386719-6.078125-1.1875-8.664063.523437-2.589843 1.710937-4.066406 4.671875-3.878906 7.765625.1875 3.097656 2.011719 5.859375 4.785156 7.246094zm0 0" data-original="#000000" class="active-path" data-old_color="#000000" fill="#FFFFFF"/><path d="m416.542969 173.558594c4.792969 0 8.675781-3.882813 8.675781-8.675782v-17.355468c0-4.792969-3.882812-8.679688-8.675781-8.679688s-8.679688 3.886719-8.679688 8.679688v17.355468c0 4.792969 3.886719 8.675782 8.679688 8.675782zm0 0" data-original="#000000" class="active-path" data-old_color="#000000" fill="#FFFFFF"/><path d="m451.253906 190.914062c1.34375 0 2.667969-.3125 3.871094-.910156l17.355469-8.679687c4.289062-2.140625 6.03125-7.355469 3.886719-11.644531-2.140626-4.289063-7.355469-6.03125-11.644532-3.886719l-17.355468 8.675781c-3.609376 1.800781-5.503907 5.84375-4.574219 9.765625.925781 3.921875 4.429687 6.6875 8.460937 6.679687zm0 0" data-original="#000000" class="active-path" data-old_color="#000000" fill="#FFFFFF"/></g> </svg>
